<?xml version="1.0" encoding="UTF-8" standalone="no"?>
<svg
   xmlns:dc="http://purl.org/dc/elements/1.1/"
   xmlns:cc="http://creativecommons.org/ns#"
   xmlns:rdf="http://www.w3.org/1999/02/22-rdf-syntax-ns#"
   xmlns:svg="http://www.w3.org/2000/svg"
   xmlns="http://www.w3.org/2000/svg"
   viewBox="0 0 986.76282 854.87878"
   height="854.87878"
   width="986.76282"
   version="1.1"
   id="svg4206">
  <metadata
     id="metadata4212">
    <rdf:RDF>
      <cc:Work
         rdf:about="">
        <dc:format>image/svg+xml</dc:format>
        <dc:type
           rdf:resource="http://purl.org/dc/dcmitype/StillImage" />
        <dc:title></dc:title>
      </cc:Work>
    </rdf:RDF>
  </metadata>
  <defs
     id="defs4210" />
  <path
     id="path4391"
     d="M 482.07531,851.95073 C 449.06314,840.84298 405.74828,817.30879 368.60182,790.29735 346.22267,774.02417 315.9947,748.11473 292.79052,725.31692 257.04848,690.20085 233.15934,659.71866 211.95807,622.17604 183.20298,571.25729 162.77048,508.08078 156.47148,450.61354 c -2.27935,-20.79493 -2.36754,-24.08887 -2.64817,-98.90379 l -0.2819,-75.1538 L 76.7707,276.39725 0,276.23854 35.25641,236.27728 c 19.39102,-21.97868 35.2564,-40.19913 35.2564,-40.48987 0,-0.29074 -15.69273,-18.30818 -34.87274,-40.03874 -19.18,-21.73057 -35.08722,-39.86169 -35.34938,-40.29138 -0.38013,-0.62305 12.69318,-0.78125 64.56023,-0.78125 l 65.03689,0 0,69.6875 0,69.6875 11.875,0 11.875,0 0,-1.875 0,-1.875 -10,0 -10,0 0,-103.125 0,-103.125002 9.98804,0 9.98805,0 0.1682,-13.906253 0.16821,-13.90625 4.375,-0.432781 c 20.60888,-2.038675 106.02029,-7.8822814 148.75,-10.1770634 141.50783,-7.599598 236.75308,-7.516998 378.75,0.328469 39.303,2.171531 96.95706,6.0627004 129.375,8.7317384 8.25,0.679243 15.63281,1.235468 16.40625,1.236062 l 1.40625,0.0012 0,14.0625 0,14.062508 10.3125,0 10.3125,0 0,103.109512 0,103.10952 -10.15625,0.17173 -10.15625,0.17174 -0.19775,1.71875 -0.19775,1.71875 12.229,0 12.229,0 0,-69.68751 0,-69.6875 64.6875,0 c 35.5781,0 64.6875,0.15725 64.6875,0.34944 0,0.19219 -15.7662,18.21143 -35.036,40.04276 -19.2698,21.83132 -35.1587,40.02564 -35.3086,40.43181 -0.1498,0.40617 15.6147,18.7385 35.0324,40.7385 l 35.3048,40 -76.715,0.3125 -76.7151,0.3125 -0.35619,78.4375 c -0.3855,84.88578 -0.30775,82.80162 -4.05875,108.75 -10.63025,73.5365 -40.99562,147.48962 -83.91712,204.375 -25.57456,33.89499 -61.08238,69.56687 -103.86613,104.34612 -43.32353,35.21806 -96.3647,66.1065 -135.80172,79.08387 -12.20258,4.01544 -11.60469,4.01307 -23.25009,0.0947 z"
     style="fill:#000000" />
  <path
     id="path4387"
     d="m 503.01281,813.44135 c 30.51524,-10.85387 67.71121,-31.44519 102.81867,-56.91931 34.83695,-25.27781 79.8867,-67.75169 106.03395,-99.971 45.92963,-56.59562 76.34426,-129.94639 85.77994,-206.875 2.53681,-20.68237 2.55494,-21.47504 2.55494,-111.5625 l 0,-87.5 -306.74818,-0.15688 -306.74816,-0.15688 0.22804,89.84438 c 0.24252,95.54807 0.13161,91.64874 3.27554,115.15688 9.01375,67.39848 35.97252,135.52588 73.94848,186.875 30.78294,41.62306 83.58597,91.76869 129.79428,123.26219 32.16774,21.92406 63.54167,38.56456 91.25,48.39843 8.518,3.02313 8.18074,3.03063 17.8125,-0.39531 z"
     style="fill:#ffffff" />
  <path
     id="path4385"
     d="m 417.07531,727.54379 c -3.63061,-1.61369 -4.93779,-3.73987 -5.20484,-8.46613 -0.28895,-5.11356 0.58658,-8.12468 3.09032,-10.62843 4.72712,-4.72713 13.67702,-2.00188 13.67702,4.16469 0,4.5565 -1.92616,5.91825 -9.0625,6.40712 -4.87984,0.33425 -4.9962,0.38006 -4.84199,1.905 0.0869,0.85938 1.00541,2.33594 2.04111,3.28125 2.18894,1.99788 5.37695,2.27606 8.95448,0.78125 2.75701,-1.15194 2.69261,-1.15262 3.1478,0.0338 0.26811,0.69869 -0.37058,1.30844 -2.27688,2.17381 -3.07662,1.39657 -6.85453,1.53457 -9.52452,0.34788 z"
     style="fill:#000000" />
  <path
     id="path4383"
     d="m 422.93274,716.48529 c 3.34448,-1.16587 4.25585,-4.53163 1.83722,-6.78488 -1.62652,-1.51537 -5.25095,-1.69675 -7.16161,-0.35849 -1.51943,1.06425 -3.34554,4.62437 -3.34554,6.52231 0,1.169 0.36416,1.31181 3.34424,1.31181 1.83932,0 4.23588,-0.31081 5.32569,-0.69075 z"
     style="fill:#ffffff" />
  <path
     id="path4381"
     d="m 435.98156,727.38948 c -2.45898,-1.01994 -2.64109,-1.27725 -1.81971,-2.5715 0.40352,-0.63581 0.96229,-0.60444 2.78285,0.15625 4.4756,1.87006 9.19311,0.63762 9.19311,-2.40169 0,-2.15487 -1.21904,-3.32919 -5.3125,-5.1175 -5.04913,-2.20575 -5.9375,-3.10362 -5.9375,-6.00087 0,-2.93969 1.54796,-4.66788 4.71293,-5.26163 3.02725,-0.56794 7.4016,0.70781 6.90091,2.01256 -0.20012,0.5215 -0.36384,1.05881 -0.36384,1.19406 0,0.13526 -0.72143,-0.0281 -1.60319,-0.36362 -4.05887,-1.54313 -7.62987,-0.11925 -6.90855,2.75469 0.33765,1.34531 1.3501,2.10637 5.03791,3.787 2.53843,1.15675 4.92099,2.67437 5.29458,3.37244 0.86996,1.62556 0.87192,4.82356 0.004,6.44537 -1.5077,2.81719 -7.56601,3.82569 -11.98094,1.99444 z"
     style="fill:#000000" />
  <path
     id="path4379"
     d="m 455.1719,726.89198 c -1.52413,-1.52419 -1.53409,-1.61338 -1.53409,-13.75 0,-11.79925 0.0426,-12.21594 1.25,-12.21594 1.06481,0 1.25,0.41669 1.25,2.8125 l 0,2.8125 3.48332,0 c 2.98,0 3.45329,0.15806 3.2754,1.09375 -0.1607,0.84531 -0.95187,1.13669 -3.48333,1.28269 l -3.27539,0.18887 0,7.65488 c 0,5.12037 0.24831,7.90312 0.75,8.40481 1.11727,1.11725 3.25454,0.90881 5.03413,-0.491 1.22848,-0.96631 1.71991,-1.06969 2.22011,-0.467 1.32462,1.59606 -2.08402,4.208 -5.49156,4.208 -1.23119,0 -2.50725,-0.56275 -3.47859,-1.53406 z"
     style="fill:#000000" />
  <path
     id="path4377"
     d="m 519.57531,727.57841 c -6.69019,-3.12262 -9.41058,-13.91506 -5.46875,-21.69587 2.47579,-4.88706 4.96232,-6.37644 10.17024,-6.09194 5.01464,0.274 7.40782,1.79063 9.44162,5.98356 3.45593,7.12482 1.66387,16.81332 -3.86738,20.9085 -2.10819,1.56082 -7.7897,2.05607 -10.27573,0.89575 z"
     style="fill:#000000" />
  <path
     id="path4375"
     d="m 527.83135,724.69823 c 4.71348,-2.87394 6.37439,-11.63219 3.36696,-17.75457 -1.19113,-2.42481 -2.06328,-3.29587 -4.28313,-4.27787 -2.6651,-1.17888 -2.90814,-1.18687 -5.53749,-0.18275 -4.07244,1.55531 -6.17738,5.39063 -6.17738,11.2555 0,9.20994 6.39719,14.76069 12.63104,10.95969 z"
     style="fill:#ffffff" />
  <path
     id="path4373"
     d="m 559.96257,727.69223 c -3.30648,-0.92988 -4.98987,-2.26831 -4.62203,-3.67494 0.31633,-1.20963 0.34759,-1.21013 2.27774,-0.0387 4.53066,2.74956 9.25692,1.96875 11.62851,-1.92112 1.82051,-2.986 1.6344,-5.69969 -0.55915,-8.15275 -1.79234,-2.00444 -1.9216,-2.04113 -7.18769,-2.04113 l -5.36253,0 2e-4,-5.68956 1.9e-4,-5.6895 4.7818,-0.40425 c 8.25174,-0.69755 9.5932,-0.5793 9.5932,0.84576 0,1.13425 -0.41951,1.25081 -4.53125,1.25856 -6.98094,0.0131 -7.34375,0.20156 -7.34375,3.81432 l 0,3.05212 3.59375,0 c 6.50651,0 10.78125,3.64113 10.78125,9.17881 0,7.01194 -6.0817,11.42113 -13.05024,9.46138 z"
     style="fill:#000000" />
  <path
     id="path4371"
     d="m 469.10925,727.01979 c -0.50812,-1.38169 0.21765,-2.34375 1.76814,-2.34375 1.19444,0 1.51042,0.32687 1.51042,1.5625 0,1.23137 -0.31696,1.5625 -1.49563,1.5625 -0.8226,0 -1.62492,-0.35156 -1.78293,-0.78125 z"
     style="fill:#000000" />
  <path
     id="path4369"
     d="m 490.22592,725.76979 c 0.71757,-3.33206 1.99673,-5.27419 5.12514,-7.78131 6.39407,-5.12438 9.53675,-8.63925 9.53675,-10.66619 0,-2.7745 -0.55083,-3.82581 -2.5447,-4.85688 -3.17549,-1.64212 -5.51233,-1.18931 -8.14506,1.57832 -1.50233,1.57925 -2.72082,2.3585 -3.32527,2.12656 -0.82756,-0.31756 -0.8403,-0.58613 -0.096,-2.02544 1.92617,-3.72475 5.61109,-5.39619 10.35367,-4.69625 4.00258,0.59075 6.25736,3.12106 6.25736,7.02206 0,4.18788 -1.61768,6.65226 -7.20232,10.972 -2.70685,2.09375 -5.45394,4.71844 -6.10464,5.83263 l -1.1831,2.02575 7.87003,0 c 7.45336,0 7.87003,0.0662 7.87003,1.25 0,1.19475 -0.41667,1.25 -9.42466,1.25 l -9.42466,0 0.43743,-2.03125 z"
     style="fill:#000000" />
  <path
     id="path4367"
     d="m 546.76281,715.90998 0,-11.89106 -1.9173,0.9915 c -1.05452,0.54531 -2.52821,0.90412 -3.27487,0.79731 -1.72824,-0.24719 -2.2643,-2.38169 -0.59814,-2.38169 0.64699,0 2.81106,-0.98438 4.80905,-2.1875 1.99798,-1.20313 3.73925,-2.1875 3.86948,-2.1875 0.13023,0 0.23678,6.46875 0.23678,14.375 l 0,14.375 -1.5625,0 -1.5625,0 0,-11.89106 z"
     style="fill:#000000" />
  <path
     id="path4365"
     d="m 334.26281,665.61354 0,-3.4375 159.375,0 159.375,0 0,3.4375 0,3.4375 -159.375,0 -159.375,0 0,-3.4375 z"
     style="fill:#000000" />
  <path
     id="path4363"
     d="m 469.76347,643.40892 c -6.25732,-1.05494 -11.85317,-5.48069 -15.38795,-12.17038 -1.42716,-2.70094 -1.65285,-3.88831 -1.66322,-8.75 -0.0103,-4.81775 0.2297,-6.14075 1.67218,-9.21875 1.40099,-2.9895 1.95106,-3.59375 3.27139,-3.59375 0.87297,0 2.50572,0.82069 3.62833,1.82381 1.96883,1.75919 2.0115,1.8975 1.20497,3.90625 -2.31712,5.77094 -2.24089,9.03288 0.31553,13.50269 2.0486,3.58187 5.46382,5.75494 9.73782,6.19606 5.87442,0.60632 10.96505,-2.14812 13.63211,-7.376 1.13354,-2.22193 1.21318,-3.83612 1.21318,-24.59043 0,-19.32769 0.12175,-22.21238 0.9375,-22.21238 0.67708,0 0.9375,-0.69444 0.9375,-2.5 0,-2.06844 -0.212,-2.5 -1.22801,-2.5 -1.34788,0 -2.81671,-2.1425 -2.17768,-3.17644 0.22117,-0.35787 1.07792,-0.90762 1.9039,-1.22162 1.45661,-0.55381 2.13736,-2.47694 0.87679,-2.47694 -0.34375,0 -0.625,-0.54588 -0.625,-1.21313 0,-0.66718 0.28125,-1.38693 0.625,-1.59937 0.4093,-0.25294 0.625,-20.12868 0.625,-57.59096 l 0,-57.20469 -1.90533,-2.65313 c -2.20878,-3.07566 -6.84472,-6.78024 -10.28226,-8.21654 -8.73669,-3.65042 -19.8179,-1.54436 -26.14893,4.96979 -2.42192,2.49197 -5.83456,8.30504 -7.01279,11.94553 -0.3282,1.01407 -0.55564,0.75291 -1.20503,-1.38373 -1.87428,-6.16672 -6.87019,-12.13525 -12.43784,-14.85925 -8.50741,-4.16228 -19.37496,-2.8932 -26.48959,3.09337 -2.58512,2.17523 -6.22539,7.77712 -7.6405,11.75772 -0.7464,2.09953 -1.17772,2.75056 -1.20706,1.82193 -0.0786,-2.48686 -3.1334,-8.10103 -6.28328,-11.5475 -10.35238,-11.32715 -29.40385,-9.69272 -37.59629,3.22542 -2.10402,3.3177 -2.18588,2.91621 -1.13402,-5.56185 1.59739,-12.87495 5.62647,-27.32625 11.31461,-40.58267 6.61112,-15.40744 15.74171,-28.7435 29.26723,-42.74743 22.45579,-23.25007 54.05642,-38.78 85.56027,-42.04803 9.35737,-0.97068 9.83477,-1.08789 11.48206,-2.819 1.61865,-1.70101 1.71931,-2.14232 1.72832,-7.57759 0.01,-6.00134 0.29316,-7.11652 1.86543,-7.34547 2.97932,-0.43386 3.12374,-0.21143 3.15243,4.85533 0.0151,2.66406 0.41023,5.91706 0.87808,7.22887 1.51462,4.24687 2.1326,4.56985 9.57426,5.0039 12.09705,0.70558 29.65472,4.64957 41.37507,9.2941 7.10033,2.81372 21.00757,10.03949 26.92377,13.98876 23.09724,15.41823 42.37487,38.23994 52.75445,62.45312 7.38532,17.22821 12.21694,38.77949 12.21694,54.49331 0,4.9165 -1.35162,5.22876 -1.94469,0.44929 -0.80281,-6.46921 -6.02906,-13.66783 -12.38081,-17.05329 -9.60026,-5.11689 -21.31456,-3.30507 -28.53418,4.41329 -2.8431,3.03951 -6.48615,9.75674 -6.54739,12.0724 -0.0182,0.6875 -0.69459,-0.53121 -1.50314,-2.70823 -2.80468,-7.55173 -9.32403,-13.89486 -16.27729,-15.83736 -4.23345,-1.18267 -11.40354,-0.83073 -15.625,0.76695 -6.3546,2.405 -13.29738,10.49598 -14.65644,17.08031 -0.3953,1.91515 -0.42126,1.89012 -1.52409,-1.46986 -1.32186,-4.02728 -4.71213,-9.34456 -7.40019,-11.60642 -6.8528,-5.76625 -17.39915,-7.19084 -25.78217,-3.48264 -3.135,1.38676 -9.33655,6.92974 -10.69745,9.56144 -0.73623,1.4237 -0.87716,12.04419 -0.87716,66.10227 0,57.68541 0.10083,64.40604 0.96627,64.40604 0.85753,0 0.94545,2.5865 0.78125,22.98381 l -0.18502,22.98382 -2.01496,4.091 c -3.51157,7.12968 -8.84823,11.26962 -16.03007,12.43531 -4.21863,0.68468 -3.88699,0.68519 -8.01681,-0.0112 z"
     style="fill:#000000" />
  <path
     id="path4361"
     d="m 261.76281,273.11354 0,-3.4375 230.625,0 230.625,0 0,3.4375 0,3.4375 -230.625,0 -230.625,0 0,-3.4375 z"
     style="fill:#000000" />
  <path
     id="path4359"
     d="m 439.60804,223.74991 c 6.0968,-2.98289 10.47504,-10.26747 12.7446,-21.20468 0.70684,-3.40632 1.28517,-6.43212 1.28517,-6.72398 0,-0.29188 2.44393,-1.65978 5.43096,-3.0398 11.31699,-5.22846 14.85137,-9.46391 15.29285,-18.3263 0.22779,-4.57275 0.17935,-4.80932 -0.7084,-3.45949 -3.2765,4.98198 -6.8196,8.99102 -10.17567,11.51382 -3.90592,2.93613 -7.27992,4.93471 -7.67084,4.54379 -0.11822,-0.11821 2.29854,-12.00528 5.37058,-26.41571 3.07204,-14.41042 5.58552,-26.70943 5.58552,-27.33114 0,-1.03662 -0.72501,-1.13038 -8.741,-1.13038 l -8.741,0 -0.71919,2.85616 -0.71919,2.85615 -2.44493,-2.3874 -2.44492,-2.38741 -6.07678,0 c -5.60741,0 -6.39924,0.15875 -10.25173,2.05532 -7.93372,3.90576 -13.84859,12.48348 -17.17033,24.90037 -1.41797,5.30044 -1.65766,7.48965 -1.70192,15.54431 -0.0499,9.08004 0.003,9.47814 1.67632,12.65339 4.50561,8.54895 15.99566,9.9402 25.68586,3.11013 l 1.7887,-1.26075 -0.44522,2.12362 c -0.59836,2.85408 -1.02481,3.19485 -7.37944,5.89667 -6.02285,2.56074 -10.88867,6.40041 -12.55146,9.90449 -1.59037,3.35145 -1.33136,8.79569 0.57304,12.04531 2.55955,4.36755 6.41315,5.9161 13.89173,5.58232 4.02683,-0.17973 5.92699,-0.60287 8.61669,-1.91881 z"
     style="fill:#ffffff" />
  <path
     id="path4357"
     d="m 423.42218,214.78308 c -1.65093,-1.82426 -1.29337,-4.76856 0.87967,-7.24352 1.78112,-2.02858 9.1938,-6.33901 9.82161,-5.7112 0.51526,0.51526 -1.26426,6.87517 -2.75788,9.85649 -2.12302,4.23762 -5.6628,5.61826 -7.9434,3.09823 z"
     style="fill:#000000" />
  <path
     id="path4355"
     d="m 428.46797,183.4347 c -3.00643,-0.56282 -5.32459,-2.7396 -5.83928,-5.48313 -0.53859,-2.87089 0.66868,-13.03522 2.27266,-19.1342 3.16048,-12.01744 8.45948,-19.14133 14.238,-19.14133 2.30754,0 5.8835,2.38791 6.58063,4.39434 0.38638,1.11202 -0.48441,6.33688 -3.11675,18.7011 l -3.65292,17.15793 -2.5,1.68939 c -2.9557,1.99733 -4.78739,2.41401 -7.98234,1.8159 z"
     style="fill:#000000" />
  <path
     id="path4353"
     d="m 384.79908,193.09043 c 7.24209,-3.31325 12.35011,-8.57383 16.66661,-17.16439 5.4318,-10.81018 8.0748,-26.76293 5.59736,-33.78475 -1.32782,-3.76344 -3.67353,-6.61918 -6.7427,-8.20876 -3.8096,-1.97306 -12.15452,-1.97497 -15.90129,-0.004 -1.46094,0.76866 -2.65625,1.20878 -2.65625,0.97804 0,-0.23074 1.27321,-6.46324 2.82935,-13.85002 1.55614,-7.38677 2.75146,-13.48029 2.65625,-13.54114 -0.0952,-0.0609 -4.25123,0.47062 -9.2356,1.18107 l -9.0625,1.29171 -7.50539,34.97014 -7.5054,34.97013 -3.4321,1.80372 c -2.72942,1.43443 -3.98914,1.74269 -6.15278,1.50563 -3.48826,-0.3822 -4.7588,-1.65728 -4.63817,-4.6548 0.0519,-1.28965 2.08043,-11.72651 4.50785,-23.19303 2.42742,-11.46642 4.41349,-21.38048 4.41349,-22.03115 0,-1.10411 -0.58096,-1.18304 -8.70788,-1.18304 -7.75357,0 -8.74326,0.11987 -9.03073,1.09375 -0.67335,2.28124 -9.14239,43.15057 -9.53435,46.01025 -0.33774,2.46407 -0.69996,3.10861 -2.03765,3.6258 -2.32255,0.89798 -7.00584,0.25463 -7.99513,-1.09831 -1.30577,-1.78574 -0.99648,-4.64843 1.99324,-18.44899 2.98503,-13.77889 3.33269,-17.47764 1.95319,-20.77928 -1.01548,-2.43036 -4.15476,-6.13308 -6.7919,-8.01089 -4.88021,-3.47502 -13.55291,-2.08017 -21.36952,3.4369 -1.6341,1.15338 -1.78671,1.17268 -1.4049,0.17771 0.23558,-0.61392 0.60557,-2.22458 0.82219,-3.57924 l 0.39385,-2.46303 -8.97917,0.17392 -8.97916,0.17391 -6.38435,30 c -3.5114,16.5 -6.39862,30.49991 -6.41605,31.11091 -0.0291,1.02181 0.68087,1.097 8.85216,0.9375 l 8.88385,-0.17341 5.28026,-25.10714 5.28026,-25.10715 2.27087,-1.02402 c 1.24898,-0.56321 3.50891,-1.04111 5.02206,-1.06199 2.2323,-0.0308 3.02174,0.27655 4.18557,1.62958 2.50658,2.91408 2.46681,4.21326 -0.60399,19.73322 -3.64808,18.43756 -3.68823,18.78024 -2.61909,22.35596 1.83007,6.12066 5.68773,8.52549 13.72887,8.55847 6.18579,0.0254 7.99737,-0.69099 13.04668,-5.15907 l 2.42168,-2.14292 1.4621,1.78753 c 0.80415,0.98314 1.4722,1.94668 1.48456,2.14119 0.0124,0.19451 1.15507,0.99021 2.53935,1.76823 1.71215,0.96228 4.00773,1.52731 7.17973,1.7672 4.32242,0.32691 4.94862,0.2111 8.57688,-1.58631 2.15271,-1.06643 5.58934,-3.32758 7.63696,-5.02478 l 3.72294,-3.08582 1.07299,2.3966 c 1.875,4.18797 5.73877,6.27984 14.29363,7.73867 3.74257,0.63821 11.60385,-0.33742 14.91127,-1.85056 z"
     style="fill:#ffffff" />
  <path
     id="path4351"
     d="m 375.51281,186.08583 c -0.85938,-0.15376 -1.91406,-0.5683 -2.34375,-0.9212 -1.51438,-1.24377 -0.70675,-7.78865 3.18156,-25.78272 l 3.91263,-18.10663 2.78104,-0.8313 c 5.29312,-1.58223 9.3598,0.27535 10.58794,4.83636 1.14917,4.26769 -1.41159,18.86982 -4.95186,28.23684 -1.75972,4.65595 -5.69145,10.65967 -7.58899,11.58833 -2.08399,1.0199 -3.73538,1.3101 -5.57857,0.98032 z"
     style="fill:#000000" />
  <path
     id="path4349"
     d="m 541.10475,194.33282 c 15.62733,-3.68339 24.48529,-16.27963 22.51012,-32.00995 -1.18802,-9.46137 -4.76011,-15.21375 -15.19212,-24.4649 -9.68793,-8.5913 -12.28494,-12.70148 -12.28494,-19.44289 0,-4.0692 0.87872,-6.38641 3.22187,-8.49622 2.96166,-2.66671 8.6934,-3.5262 12.60796,-1.89059 5.52111,2.30687 6.00571,10.94281 0.91985,16.39271 -1.45377,1.55784 -1.64274,2.06575 -0.97479,2.62011 2.87343,2.38474 7.99623,2.10669 10.92954,-0.59323 5.16214,-4.7514 5.20973,-15.62753 0.089,-20.33504 -5.29051,-4.86358 -18.60768,-6.276692 -28.26207,-2.99894 -7.36895,2.50183 -13.75877,7.81747 -16.78182,13.96069 -1.08433,2.2035 -1.43235,3.98066 -1.42738,7.28897 0.0103,6.87073 1.79697,9.98017 11.46937,19.96089 4.44694,4.58868 9.10445,9.84967 10.35003,11.69108 6.09657,9.01292 6.37815,22.88605 0.59446,29.28791 -3.86986,4.28346 -10.99097,5.25533 -16.18854,2.20935 -3.68946,-2.16217 -5.29746,-5.30166 -5.29746,-10.34287 0,-4.11121 0.99143,-6.70969 3.63986,-9.5398 1.59795,-1.70758 6.45362,-3.57906 9.28608,-3.57906 1.71402,0 1.82028,-0.72741 0.41875,-2.86644 -1.68151,-2.56631 -4.39464,-3.58477 -9.46768,-3.55402 -3.82144,0.0232 -5.1888,0.34255 -8.4375,1.97074 -8.34412,4.18192 -11.46815,12.61768 -8.43168,22.76796 1.62231,5.4231 8.06038,10.33168 15.74329,12.00318 5.25329,1.14291 16.03516,1.12252 20.96582,-0.0396 z"
     style="fill:#ffffff" />
  <path
     id="path4347"
     d="m 714.67812,193.78595 c 1.77525,-0.82659 4.67113,-2.89406 6.43519,-4.59439 l 3.20738,-3.09151 0.85275,1.63175 c 3.43862,6.57978 12.89887,8.91445 20.65187,5.09663 2.0625,-1.01564 4.98688,-2.77323 6.49862,-3.90576 2.18363,-1.63589 2.81507,-1.86644 3.07188,-1.12163 0.62019,1.79855 3.95319,4.31759 7.49081,5.66147 5.18369,1.96917 15.87669,2.01234 20.77769,0.0839 9.83381,-3.8695 18.202,-15.34139 22.20006,-30.43409 1.65425,-6.24481 1.68856,-19.66337 0.0588,-22.94082 -1.37712,-2.76911 -3.75212,-5.24571 -6.33469,-6.60569 -3.054,-1.60821 -11.80662,-1.43017 -15.29137,0.31104 -1.52813,0.76355 -2.83975,1.32605 -2.91475,1.25 -0.075,-0.0761 1.09619,-5.90389 2.60262,-12.95077 1.5065,-7.04687 2.74782,-13.24858 2.7585,-13.78157 0.0175,-0.86424 -0.94393,-0.83895 -8.88675,0.2337 -4.89843,0.66152 -9.01681,1.30189 -9.15187,1.42304 -0.44331,0.39751 -14.44188,66.61454 -14.44188,68.31388 0,2.68818 -1.57993,4.31511 -4.63537,4.77331 -4.69406,0.70391 -7.23963,-0.84117 -7.23963,-4.39414 0,-1.57905 6.75494,-35.20794 9.07157,-45.16197 l 0.32725,-1.40625 -9.00663,0 -9.00669,0 -0.39362,1.56838 -0.39362,1.56837 -2.46175,-1.25587 c -3.27569,-1.67115 -9.76388,-1.68038 -15.10194,-0.0215 -13.73225,4.2675 -21.75056,18.27694 -23.39338,40.87233 l -0.4485,6.16922 -2.81337,1.24448 c -3.28531,1.45325 -7.43344,1.19775 -8.70113,-0.53592 -0.44175,-0.60413 -0.80318,-2.0232 -0.80318,-3.15348 0,-1.13029 3.23437,-17.2664 7.1875,-35.85802 3.95312,-18.59163 7.1875,-34.15073 7.1875,-34.5758 0,-0.59367 -2.06475,-0.494 -8.90625,0.42993 -4.89844,0.66152 -9.00713,1.29223 -9.13044,1.40158 -0.12332,0.10934 -3.25988,14.43602 -6.97013,31.83705 -4.87762,22.87593 -7.06581,31.99403 -7.90081,32.92288 -1.89525,2.10818 -8.45263,6.56473 -11.46737,7.79346 -1.88419,0.76795 -4.40607,1.14782 -7.64044,1.15085 -4.3215,0.004 -4.99113,-0.15936 -6.38363,-1.55795 -7.61456,-7.64788 -0.5675,-39.02425 9.87807,-43.981 2.72981,-1.29538 5.34506,-1.29763 7.18887,-0.006 1.19775,0.83894 1.40944,1.46538 1.23281,3.64891 l -0.21318,2.63609 3.57793,-0.0489 3.57794,-0.0489 0.39537,-2.63649 c 0.50169,-3.34534 -1.24818,-6.42822 -4.59237,-8.09076 -3.0825,-1.53246 -14.72056,-1.59441 -18.75231,-0.0998 -12.69557,4.70633 -20.08394,16.49615 -22.37482,35.70391 -0.31835,2.6692 -0.85459,3.53555 -4.68278,7.56565 -5.57787,5.87204 -10.63644,8.69079 -15.59662,8.69079 -6.7083,0 -9.98984,-3.7125 -9.98984,-11.30177 l 0,-4.36075 3.84518,-0.81601 c 5.52255,-1.17196 12.77916,-4.89492 16.921,-8.68121 4.33715,-3.96483 7.1406,-9.32778 7.70323,-14.73609 0.34765,-3.34187 0.1938,-4.12411 -1.41366,-7.1875 -2.79256,-5.32186 -5.48524,-6.5625 -14.24326,-6.5625 -6.09959,0 -7.26591,0.18336 -10.34101,1.62569 -4.59854,2.1569 -7.48189,4.78172 -10.899,9.9218 -3.51549,5.28804 -5.71676,11.03442 -7.25669,18.94342 -3.0371,15.59847 -0.45768,25.27563 8.07397,30.29096 2.68693,1.57952 3.45218,1.71813 9.48523,1.71813 5.49315,0 7.17357,-0.24652 10.3125,-1.51288 5.2033,-2.0992 9.97833,-5.33863 14.23975,-9.66041 1.9921,-2.02032 3.70083,-3.56719 3.79717,-3.4375 0.0963,0.12968 0.53815,1.50142 0.98177,3.04829 1.32356,4.61493 3.6675,7.99781 6.8295,9.85663 2.70756,1.59166 3.383,1.70558 10.08931,1.70154 10.79194,-0.006 16.14919,-2.15629 24.00857,-9.63428 2.37662,-2.26126 4.12675,-3.77425 3.88918,-3.3622 -0.7945,1.37821 0.95875,6.33771 3.14225,8.88866 1.56013,1.82264 3.04907,2.78751 5.36094,3.47408 7.00425,2.08003 12.07694,0.82477 19.52088,-4.83055 l 3.73425,-2.83703 1.66812,2.90283 c 2.61913,4.55762 5.92307,6.18438 12.73832,6.27191 3.39174,0.0436 5.10043,-0.28156 7.60281,-1.44668 z"
     style="fill:#ffffff" />
  <path
     id="path4345"
     d="m 774.96325,185.87852 c -1.16163,-0.24896 -2.37231,-0.8323 -2.69044,-1.29632 -0.95412,-1.39168 -0.0944,-7.55057 3.21494,-23.03116 4.94281,-23.12181 3.94737,-20.44239 7.89969,-21.2629 4.81081,-0.99872 7.36687,-0.064 9.09662,3.32658 1.14475,2.24385 1.26606,3.24905 0.92613,7.67167 -0.88025,11.45163 -6.51294,28.13184 -10.92825,32.36196 -2.15094,2.06073 -4.73413,2.82695 -7.51869,2.23017 z"
     style="fill:#000000" />
  <path
     id="path4343"
     d="m 713.12044,184.5892 c -1.64719,-0.47446 -2.35163,-1.2104 -3.38619,-3.53738 -1.23706,-2.78254 -1.2675,-3.31925 -0.57425,-10.12578 0.91425,-8.97665 2.52181,-15.20608 5.456,-21.14308 2.78875,-5.6426 6.2215,-9.2517 9.35975,-9.84043 2.20419,-0.41351 6.79625,0.51098 7.40137,1.49007 0.1605,0.25966 -1.37256,8.33785 -3.40675,17.95153 -2.03418,9.61367 -3.70056,17.90752 -3.70306,18.43076 -0.008,1.53081 -3.79456,5.69167 -6.03144,6.62629 -2.31875,0.96884 -2.27068,0.96744 -5.11543,0.14802 z"
     style="fill:#000000" />
  <path
     id="path4341"
     d="m 586.13781,163.12101 c 0,-1.06885 4.15193,-13.00541 5.32879,-15.31997 2.37911,-4.67903 5.25521,-8.17166 7.50239,-9.11058 2.84706,-1.18958 3.22398,-1.14108 5.00973,0.64467 1.30847,1.30847 1.53409,2.12106 1.53409,5.52517 0,7.52062 -5.07248,14.551 -12.54812,17.39153 -2.84772,1.08204 -6.82688,1.58866 -6.82688,0.86918 z"
     style="fill:#000000" />
  <path
     id="path4339"
     d="m 222.38891,191.64958 3.89077,-2.59816 -0.42173,2.81231 -0.42173,2.81231 8.94455,-0.002 8.94454,-0.002 9.64784,-45.46709 c 5.30632,-25.00689 9.7688,-45.95927 9.91665,-46.56083 0.2466,-1.00341 -0.47328,-1.09375 -8.71527,-1.09375 l -8.98406,0 -7.43706,34.84375 c -4.09038,19.16406 -7.77013,36.16662 -8.17724,37.78346 -0.90567,3.59693 -4.57173,8.21903 -7.84248,9.88765 -6.62719,3.38093 -11.126,0.13185 -13.45359,-9.7163 -1.30215,-5.50948 -0.86858,-16.68809 0.98122,-25.29856 2.89626,-13.48151 10.23231,-31.53917 17.21403,-42.3723 1.61628,-2.50789 2.78863,-4.70986 2.60522,-4.89327 -0.1834,-0.1834 -3.80337,-0.32772 -8.04436,-0.32071 -12.13706,0.0201 -22.00428,3.34341 -31.87539,10.73581 -9.11979,6.82974 -14.67657,18.24404 -12.37631,25.42245 1.65229,5.15632 4.07172,7.01597 10.40002,7.99383 l 2.60923,0.40317 -0.89048,-2.95882 c -3.383,-11.24086 3.11407,-26.20414 13.73625,-31.6357 2.86202,-1.46347 7.3509,-3.10517 7.65606,-2.80002 0.11703,0.11704 -1.08053,1.87785 -2.66124,3.91292 -7.79312,10.0332 -14.28984,30.2382 -15.84063,49.26485 -1.36128,16.70153 1.84017,26.00728 10.42813,30.31178 3.9025,1.95603 6.82885,2.53083 11.81487,2.32072 4.04198,-0.17033 4.8272,-0.43228 8.35219,-2.78617 z"
     style="fill:#ffffff" />
  <path
     id="path4337"
     d="m 348.6093,124.28096 c 6.67307,-3.94188 6.04401,-13.7003 -1.10817,-17.19073 -10.08192,-4.92021 -18.82731,8.497 -10.56689,16.21177 2.91022,2.71798 8.00758,3.1454 11.67506,0.97896 z"
     style="fill:#ffffff" />
  <path
     id="path4335"
     d="m 202.72842,42.196778 c 118.0252,-9.225649 229.85837,-13.806787 314.34689,-12.876918 79.37667,0.873606 180.26562,5.819058 275.30444,13.495078 8.41744,0.67986 16.644,1.2361 18.28125,1.2361 l 2.97681,0 0,-5 c 0,-4.767647 -0.0654,-5.000141 -1.40625,-5.002953 -0.77344,-0.0019 -8.4375,-0.556244 -17.03125,-1.232494 -20.36412,-1.602469 -55.38906,-3.966437 -87.8125,-5.9268 -163.99448,-9.915312 -272.94687,-9.682781 -442.8125,0.945081 -27.34451,1.710844 -74.12889,4.964044 -86.09375,5.986613 l -4.84375,0.413969 0,4.908294 0,4.90829 2.68436,0 c 1.47641,0 13.35922,-0.83442 26.40625,-1.85426 z"
     style="fill:#ffffff" />
</svg>
