<?xml version="1.0" encoding="UTF-8" standalone="no"?>
<svg
   xmlns:dc="http://purl.org/dc/elements/1.1/"
   xmlns:cc="http://creativecommons.org/ns#"
   xmlns:rdf="http://www.w3.org/1999/02/22-rdf-syntax-ns#"
   xmlns:svg="http://www.w3.org/2000/svg"
   xmlns="http://www.w3.org/2000/svg"
   xmlns:sodipodi="http://sodipodi.sourceforge.net/DTD/sodipodi-0.dtd"
   xmlns:inkscape="http://www.inkscape.org/namespaces/inkscape"
   viewBox="0 0 986.76282 854.87878"
   height="854.87878"
   width="986.76282"
   version="1.1"
   id="svg4206"
   inkscape:version="0.92.2 2405546, 2018-03-11"
   sodipodi:docname="logo.svg">
  <sodipodi:namedview
     pagecolor="#ffffff"
     bordercolor="#666666"
     borderopacity="1"
     objecttolerance="10"
     gridtolerance="10"
     guidetolerance="10"
     inkscape:pageopacity="0"
     inkscape:pageshadow="2"
     inkscape:window-width="849"
     inkscape:window-height="1400"
     id="namedview4254"
     showgrid="false"
     inkscape:zoom="0.22705068"
     inkscape:cx="320.5294"
     inkscape:cy="482.02936"
     inkscape:window-x="854"
     inkscape:window-y="38"
     inkscape:window-maximized="0"
     inkscape:current-layer="svg4206" />
  <metadata
     id="metadata4212">
    <rdf:RDF>
      <cc:Work
         rdf:about="">
        <dc:format>image/svg+xml</dc:format>
        <dc:type
           rdf:resource="http://purl.org/dc/dcmitype/StillImage" />
        <dc:title></dc:title>
      </cc:Work>
    </rdf:RDF>
  </metadata>
  <defs
     id="defs4210" />
  <path
     id="path4391"
     d="M 482.07531,851.95073 C 449.06314,840.84298 405.74828,817.30879 368.60182,790.29735 346.22267,774.02417 315.9947,748.11473 292.79052,725.31692 257.04848,690.20085 233.15934,659.71866 211.95807,622.17604 183.20298,571.25729 162.77048,508.08078 156.47148,450.61354 c -2.27935,-20.79493 -2.36754,-24.08887 -2.64817,-98.90379 l -0.2819,-75.1538 L 76.7707,276.39725 0,276.23854 35.25641,236.27728 c 19.39102,-21.97868 35.2564,-40.19913 35.2564,-40.48987 0,-0.29074 -15.69273,-18.30818 -34.87274,-40.03874 -19.18,-21.73057 -35.08722,-39.86169 -35.34938,-40.29138 -0.38013,-0.62305 12.69318,-0.78125 64.56023,-0.78125 l 65.03689,0 0,69.6875 0,69.6875 11.875,0 11.875,0 0,-1.875 0,-1.875 -10,0 -10,0 0,-103.125 0,-103.125002 9.98804,0 9.98805,0 0.1682,-13.906253 0.16821,-13.90625 4.375,-0.432781 c 20.60888,-2.038675 106.02029,-7.8822814 148.75,-10.1770634 141.50783,-7.599598 236.75308,-7.516998 378.75,0.328469 39.303,2.171531 96.95706,6.0627004 129.375,8.7317384 8.25,0.679243 15.63281,1.235468 16.40625,1.236062 l 1.40625,0.0012 0,14.0625 0,14.062508 10.3125,0 10.3125,0 0,103.109512 0,103.10952 -10.15625,0.17173 -10.15625,0.17174 -0.19775,1.71875 -0.19775,1.71875 12.229,0 12.229,0 0,-69.68751 0,-69.6875 64.6875,0 c 35.5781,0 64.6875,0.15725 64.6875,0.34944 0,0.19219 -15.7662,18.21143 -35.036,40.04276 -19.2698,21.83132 -35.1587,40.02564 -35.3086,40.43181 -0.1498,0.40617 15.6147,18.7385 35.0324,40.7385 l 35.3048,40 -76.715,0.3125 -76.7151,0.3125 -0.35619,78.4375 c -0.3855,84.88578 -0.30775,82.80162 -4.05875,108.75 -10.63025,73.5365 -40.99562,147.48962 -83.91712,204.375 -25.57456,33.89499 -61.08238,69.56687 -103.86613,104.34612 -43.32353,35.21806 -96.3647,66.1065 -135.80172,79.08387 -12.20258,4.01544 -11.60469,4.01307 -23.25009,0.0947 z"
     style="fill:#000000" />
  <path
     id="path4387"
     d="m 503.01281,813.44135 c 30.51524,-10.85387 67.71121,-31.44519 102.81867,-56.91931 34.83695,-25.27781 79.8867,-67.75169 106.03395,-99.971 45.92963,-56.59562 76.34426,-129.94639 85.77994,-206.875 2.53681,-20.68237 2.55494,-21.47504 2.55494,-111.5625 l 0,-87.5 -306.74818,-0.15688 -306.74816,-0.15688 0.22804,89.84438 c 0.24252,95.54807 0.13161,91.64874 3.27554,115.15688 9.01375,67.39848 35.97252,135.52588 73.94848,186.875 30.78294,41.62306 83.58597,91.76869 129.79428,123.26219 32.16774,21.92406 63.54167,38.56456 91.25,48.39843 8.518,3.02313 8.18074,3.03063 17.8125,-0.39531 z"
     style="fill:#ffffff" />
  <path
     id="path4365"
     d="m 334.26281,665.61354 0,-3.4375 159.375,0 159.375,0 0,3.4375 0,3.4375 -159.375,0 -159.375,0 0,-3.4375 z"
     style="fill:#000000" />
  <path
     id="path4363"
     d="m 469.76347,643.40892 c -6.25732,-1.05494 -11.85317,-5.48069 -15.38795,-12.17038 -1.42716,-2.70094 -1.65285,-3.88831 -1.66322,-8.75 -0.0103,-4.81775 0.2297,-6.14075 1.67218,-9.21875 1.40099,-2.9895 1.95106,-3.59375 3.27139,-3.59375 0.87297,0 2.50572,0.82069 3.62833,1.82381 1.96883,1.75919 2.0115,1.8975 1.20497,3.90625 -2.31712,5.77094 -2.24089,9.03288 0.31553,13.50269 2.0486,3.58187 5.46382,5.75494 9.73782,6.19606 5.87442,0.60632 10.96505,-2.14812 13.63211,-7.376 1.13354,-2.22193 1.21318,-3.83612 1.21318,-24.59043 0,-19.32769 0.12175,-22.21238 0.9375,-22.21238 0.67708,0 0.9375,-0.69444 0.9375,-2.5 0,-2.06844 -0.212,-2.5 -1.22801,-2.5 -1.34788,0 -2.81671,-2.1425 -2.17768,-3.17644 0.22117,-0.35787 1.07792,-0.90762 1.9039,-1.22162 1.45661,-0.55381 2.13736,-2.47694 0.87679,-2.47694 -0.34375,0 -0.625,-0.54588 -0.625,-1.21313 0,-0.66718 0.28125,-1.38693 0.625,-1.59937 0.4093,-0.25294 0.625,-20.12868 0.625,-57.59096 l 0,-57.20469 -1.90533,-2.65313 c -2.20878,-3.07566 -6.84472,-6.78024 -10.28226,-8.21654 -8.73669,-3.65042 -19.8179,-1.54436 -26.14893,4.96979 -2.42192,2.49197 -5.83456,8.30504 -7.01279,11.94553 -0.3282,1.01407 -0.55564,0.75291 -1.20503,-1.38373 -1.87428,-6.16672 -6.87019,-12.13525 -12.43784,-14.85925 -8.50741,-4.16228 -19.37496,-2.8932 -26.48959,3.09337 -2.58512,2.17523 -6.22539,7.77712 -7.6405,11.75772 -0.7464,2.09953 -1.17772,2.75056 -1.20706,1.82193 -0.0786,-2.48686 -3.1334,-8.10103 -6.28328,-11.5475 -10.35238,-11.32715 -29.40385,-9.69272 -37.59629,3.22542 -2.10402,3.3177 -2.18588,2.91621 -1.13402,-5.56185 1.59739,-12.87495 5.62647,-27.32625 11.31461,-40.58267 6.61112,-15.40744 15.74171,-28.7435 29.26723,-42.74743 22.45579,-23.25007 54.05642,-38.78 85.56027,-42.04803 9.35737,-0.97068 9.83477,-1.08789 11.48206,-2.819 1.61865,-1.70101 1.71931,-2.14232 1.72832,-7.57759 0.01,-6.00134 0.29316,-7.11652 1.86543,-7.34547 2.97932,-0.43386 3.12374,-0.21143 3.15243,4.85533 0.0151,2.66406 0.41023,5.91706 0.87808,7.22887 1.51462,4.24687 2.1326,4.56985 9.57426,5.0039 12.09705,0.70558 29.65472,4.64957 41.37507,9.2941 7.10033,2.81372 21.00757,10.03949 26.92377,13.98876 23.09724,15.41823 42.37487,38.23994 52.75445,62.45312 7.38532,17.22821 12.21694,38.77949 12.21694,54.49331 0,4.9165 -1.35162,5.22876 -1.94469,0.44929 -0.80281,-6.46921 -6.02906,-13.66783 -12.38081,-17.05329 -9.60026,-5.11689 -21.31456,-3.30507 -28.53418,4.41329 -2.8431,3.03951 -6.48615,9.75674 -6.54739,12.0724 -0.0182,0.6875 -0.69459,-0.53121 -1.50314,-2.70823 -2.80468,-7.55173 -9.32403,-13.89486 -16.27729,-15.83736 -4.23345,-1.18267 -11.40354,-0.83073 -15.625,0.76695 -6.3546,2.405 -13.29738,10.49598 -14.65644,17.08031 -0.3953,1.91515 -0.42126,1.89012 -1.52409,-1.46986 -1.32186,-4.02728 -4.71213,-9.34456 -7.40019,-11.60642 -6.8528,-5.76625 -17.39915,-7.19084 -25.78217,-3.48264 -3.135,1.38676 -9.33655,6.92974 -10.69745,9.56144 -0.73623,1.4237 -0.87716,12.04419 -0.87716,66.10227 0,57.68541 0.10083,64.40604 0.96627,64.40604 0.85753,0 0.94545,2.5865 0.78125,22.98381 l -0.18502,22.98382 -2.01496,4.091 c -3.51157,7.12968 -8.84823,11.26962 -16.03007,12.43531 -4.21863,0.68468 -3.88699,0.68519 -8.01681,-0.0112 z"
     style="fill:#000000" />
  <path
     id="path4361"
     d="m 261.76281,273.11354 0,-3.4375 230.625,0 230.625,0 0,3.4375 0,3.4375 -230.625,0 -230.625,0 0,-3.4375 z"
     style="fill:#000000" />
  <path
     style="fill:#ffffff"
     d="M 449.28125 132.17578 L 448.5625 135.03125 L 447.8418 137.88867 L 445.39844 135.5 L 442.95312 133.11328 L 436.875 133.11328 C 431.26759 133.11328 430.47749 133.2714 426.625 135.16797 C 418.69128 139.07373 412.77488 147.65147 409.45312 160.06836 C 408.03515 165.3688 407.79621 167.55862 407.75195 175.61328 C 407.70205 184.69332 407.75441 185.09233 409.42773 188.26758 C 413.93334 196.81653 425.42308 198.20702 435.11328 191.37695 L 436.90234 190.11719 L 436.45703 192.24023 C 435.85867 195.09431 435.43275 195.4349 429.07812 198.13672 C 423.05527 200.69746 418.19013 204.53694 416.52734 208.04102 C 414.93697 211.39247 415.19521 216.83632 417.09961 220.08594 C 419.65916 224.45349 423.51361 226.00175 430.99219 225.66797 C 435.01902 225.48824 436.91772 225.06594 439.60742 223.75 C 445.70422 220.76711 450.08396 213.48213 452.35352 202.54492 C 453.06036 199.1386 453.63867 196.11217 453.63867 195.82031 C 453.63867 195.52843 456.08133 194.16127 459.06836 192.78125 C 470.38535 187.55279 473.91985 183.31747 474.36133 174.45508 C 474.58912 169.88233 474.54009 169.64626 473.65234 170.99609 C 470.37584 175.97807 466.83459 179.98697 463.47852 182.50977 C 459.5726 185.4459 456.19756 187.44365 455.80664 187.05273 C 455.68842 186.93452 458.10569 175.04715 461.17773 160.63672 C 464.24977 146.2263 466.76367 133.92835 466.76367 133.30664 C 466.76367 132.27002 466.03747 132.17578 458.02148 132.17578 L 449.28125 132.17578 z M 439.13867 139.67578 C 441.44621 139.67578 445.02357 142.06388 445.7207 144.07031 C 446.10708 145.18233 445.23586 150.40726 442.60352 162.77148 L 438.95117 179.92969 L 436.45117 181.61914 C 433.49547 183.61647 431.6637 184.03366 428.46875 183.43555 C 425.46232 182.87273 423.1436 180.6947 422.62891 177.95117 C 422.09032 175.08028 423.29641 164.91539 424.90039 158.81641 C 428.06087 146.79897 433.36015 139.67578 439.13867 139.67578 z M 433.92969 201.76758 C 434.0189 201.77 434.08381 201.78889 434.12305 201.82812 C 434.63831 202.34339 432.85885 208.70423 431.36523 211.68555 C 429.24221 215.92317 425.70247 217.30323 423.42188 214.7832 C 421.77094 212.95894 422.12969 210.01402 424.30273 207.53906 C 425.97253 205.63727 432.59148 201.73127 433.92969 201.76758 z "
     id="path4359" />
  <path
     style="fill:#ffffff"
     d="M 387.24805 107.51562 C 387.15285 107.45472 382.99804 107.98682 378.01367 108.69727 L 368.95117 109.98828 L 361.44531 144.95898 L 353.93945 179.92773 L 350.50781 181.73242 C 347.77839 183.16685 346.51911 183.47534 344.35547 183.23828 C 340.86721 182.85608 339.59617 181.5815 339.7168 178.58398 C 339.7687 177.29433 341.79719 166.85715 344.22461 155.39062 C 346.65203 143.92421 348.63867 134.01005 348.63867 133.35938 C 348.63867 132.25527 348.05661 132.17578 339.92969 132.17578 C 332.17612 132.17578 331.18591 132.29565 330.89844 133.26953 C 330.22509 135.55077 321.75719 176.41962 321.36523 179.2793 C 321.02749 181.74337 320.66582 182.38906 319.32812 182.90625 C 317.00558 183.80423 312.32132 183.15958 311.33203 181.80664 C 310.02626 180.0209 310.33645 177.15798 313.32617 163.35742 C 316.3112 149.57853 316.6588 145.87976 315.2793 142.57812 C 314.26382 140.14776 311.12347 136.44617 308.48633 134.56836 C 303.60612 131.09334 294.9338 132.48879 287.11719 138.00586 C 285.48309 139.15924 285.33108 139.17856 285.71289 138.18359 C 285.94847 137.56967 286.31854 135.95818 286.53516 134.60352 L 286.92773 132.14062 L 277.94922 132.31445 L 268.9707 132.48828 L 262.58594 162.48828 C 259.07454 178.98828 256.18735 192.98861 256.16992 193.59961 C 256.14082 194.62142 256.85019 194.69661 265.02148 194.53711 L 273.90625 194.36328 L 279.18555 169.25586 L 284.4668 144.14844 L 286.73633 143.125 C 287.98531 142.56179 290.24662 142.08338 291.75977 142.0625 C 293.99207 142.0317 294.78148 142.34033 295.94531 143.69336 C 298.45189 146.60744 298.41064 147.90582 295.33984 163.42578 C 291.69176 181.86334 291.65156 182.20553 292.7207 185.78125 C 294.55077 191.90191 298.41003 194.30686 306.45117 194.33984 C 312.63696 194.36524 314.44678 193.64972 319.49609 189.18164 L 321.91797 187.03906 L 323.38086 188.82617 C 324.18501 189.80931 324.85287 190.77229 324.86523 190.9668 C 324.87763 191.16131 326.02002 191.95636 327.4043 192.73438 C 329.11645 193.69665 331.41198 194.26206 334.58398 194.50195 C 338.9064 194.82886 339.53385 194.71343 343.16211 192.91602 C 345.31482 191.84959 348.75121 189.58782 350.79883 187.89062 L 354.52148 184.80469 L 355.59375 187.20117 C 357.46875 191.38914 361.33381 193.48258 369.88867 194.94141 C 373.63124 195.57962 381.49141 194.60298 384.79883 193.08984 C 392.04092 189.77659 397.14834 184.51634 401.46484 175.92578 C 406.89664 165.1156 409.53994 149.16244 407.0625 142.14062 C 405.73468 138.37718 403.38948 135.52122 400.32031 133.93164 C 396.51071 131.95858 388.16669 131.95676 384.41992 133.92773 C 382.95898 134.69639 381.76367 135.13699 381.76367 134.90625 C 381.76367 134.67551 383.03566 128.44342 384.5918 121.05664 C 386.14794 113.66987 387.34326 107.57647 387.24805 107.51562 z M 386.75977 139.89062 C 390.19412 139.95936 392.71171 141.86049 393.63281 145.28125 C 394.78198 149.54894 392.21996 164.15056 388.67969 173.51758 C 386.91997 178.17353 382.98934 184.17681 381.0918 185.10547 C 379.00781 186.12537 377.35686 186.41572 375.51367 186.08594 C 374.65429 185.93218 373.59961 185.51696 373.16992 185.16406 C 371.65554 183.92029 372.46325 177.37688 376.35156 159.38281 L 380.26367 141.27539 L 383.04492 140.44336 C 384.3682 140.0478 385.61498 139.86771 386.75977 139.89062 z "
     id="path4353" />
  <path
     id="path4349"
     d="m 541.10475,194.33282 c 15.62733,-3.68339 24.48529,-16.27963 22.51012,-32.00995 -1.18802,-9.46137 -4.76011,-15.21375 -15.19212,-24.4649 -9.68793,-8.5913 -12.28494,-12.70148 -12.28494,-19.44289 0,-4.0692 0.87872,-6.38641 3.22187,-8.49622 2.96166,-2.66671 8.6934,-3.5262 12.60796,-1.89059 5.52111,2.30687 6.00571,10.94281 0.91985,16.39271 -1.45377,1.55784 -1.64274,2.06575 -0.97479,2.62011 2.87343,2.38474 7.99623,2.10669 10.92954,-0.59323 5.16214,-4.7514 5.20973,-15.62753 0.089,-20.33504 -5.29051,-4.86358 -18.60768,-6.276692 -28.26207,-2.99894 -7.36895,2.50183 -13.75877,7.81747 -16.78182,13.96069 -1.08433,2.2035 -1.43235,3.98066 -1.42738,7.28897 0.0103,6.87073 1.79697,9.98017 11.46937,19.96089 4.44694,4.58868 9.10445,9.84967 10.35003,11.69108 6.09657,9.01292 6.37815,22.88605 0.59446,29.28791 -3.86986,4.28346 -10.99097,5.25533 -16.18854,2.20935 -3.68946,-2.16217 -5.29746,-5.30166 -5.29746,-10.34287 0,-4.11121 0.99143,-6.70969 3.63986,-9.5398 1.59795,-1.70758 6.45362,-3.57906 9.28608,-3.57906 1.71402,0 1.82028,-0.72741 0.41875,-2.86644 -1.68151,-2.56631 -4.39464,-3.58477 -9.46768,-3.55402 -3.82144,0.0232 -5.1888,0.34255 -8.4375,1.97074 -8.34412,4.18192 -11.46815,12.61768 -8.43168,22.76796 1.62231,5.4231 8.06038,10.33168 15.74329,12.00318 5.25329,1.14291 16.03516,1.12252 20.96582,-0.0396 z"
     style="fill:#ffffff" />
  <path
     style="fill:#ffffff"
     d="M 785.28516 107.78516 C 784.05413 107.81753 781.82883 108.09258 777.85742 108.62891 C 772.95899 109.29043 768.84014 109.92963 768.70508 110.05078 C 768.26177 110.44829 754.26367 176.66589 754.26367 178.36523 C 754.26367 181.05341 752.68239 182.68047 749.62695 183.13867 C 744.93289 183.84258 742.38867 182.29711 742.38867 178.74414 C 742.38867 177.16509 749.14235 143.53606 751.45898 133.58203 L 751.78711 132.17578 L 742.7793 132.17578 L 733.77344 132.17578 L 733.37891 133.74414 L 732.98633 135.3125 L 730.52539 134.05664 C 727.2497 132.38549 720.75994 132.37628 715.42188 134.03516 C 701.68962 138.30266 693.67212 152.31281 692.0293 174.9082 L 691.58008 181.07617 L 688.76758 182.32227 C 685.48227 183.77552 681.3341 183.51883 680.06641 181.78516 C 679.62466 181.18103 679.26367 179.76309 679.26367 178.63281 C 679.26367 177.50252 682.49804 161.36506 686.45117 142.77344 C 690.40429 124.18181 693.63867 108.62429 693.63867 108.19922 C 693.63867 107.60555 691.57392 107.70498 684.73242 108.62891 C 679.83398 109.29043 675.72487 109.91995 675.60156 110.0293 C 675.47824 110.13864 672.34111 124.46616 668.63086 141.86719 C 663.75324 164.74312 661.56547 173.86021 660.73047 174.78906 C 658.83522 176.89724 652.27841 181.35525 649.26367 182.58398 C 647.37948 183.35193 644.85742 183.73135 641.62305 183.73438 C 637.30155 183.73837 636.63078 183.57437 635.23828 182.17578 C 627.62372 174.5279 634.67162 143.15206 645.11719 138.19531 C 647.847 136.89993 650.46283 136.89782 652.30664 138.18945 C 653.50439 139.02839 653.71569 139.65436 653.53906 141.83789 L 653.32617 144.47461 L 656.9043 144.42578 L 660.48047 144.37695 L 660.87695 141.74023 C 661.37864 138.39489 659.62935 135.31098 656.28516 133.64844 C 653.20266 132.11598 641.563 132.05422 637.53125 133.54883 C 624.83568 138.25516 617.44908 150.04615 615.1582 169.25391 C 614.83985 171.92311 614.3028 172.78826 610.47461 176.81836 C 604.89674 182.6904 599.83713 185.50977 594.87695 185.50977 C 588.16865 185.50977 584.88867 181.7963 584.88867 174.20703 L 584.88867 169.84766 L 588.73242 169.03125 C 594.25497 167.85929 601.51246 164.1359 605.6543 160.34961 C 609.99145 156.38478 612.79479 151.02159 613.35742 145.61328 C 613.70507 142.27141 613.55082 141.48917 611.94336 138.42578 C 609.1508 133.10392 606.45919 131.86328 597.70117 131.86328 C 591.60158 131.86328 590.43446 132.0479 587.35938 133.49023 C 582.76084 135.64713 579.87805 138.27203 576.46094 143.41211 C 572.94545 148.70015 570.74307 154.44647 569.20312 162.35547 C 566.16602 177.95394 568.74569 187.63115 577.27734 192.64648 C 579.96427 194.226 580.73062 194.36328 586.76367 194.36328 C 592.25682 194.36328 593.93724 194.11792 597.07617 192.85156 C 602.27947 190.75236 607.05303 187.51319 611.31445 183.19141 C 613.30655 181.17109 615.01694 179.62422 615.11328 179.75391 C 615.20958 179.88359 615.65013 181.25391 616.09375 182.80078 C 617.41731 187.41571 619.76183 190.79938 622.92383 192.6582 C 625.63139 194.24986 626.30736 194.3634 633.01367 194.35938 C 643.80561 194.35337 649.1621 192.2026 657.02148 184.72461 C 659.3981 182.46335 661.14773 180.95123 660.91016 181.36328 C 660.11566 182.74149 661.86923 187.701 664.05273 190.25195 C 665.61286 192.07459 667.10219 193.03999 669.41406 193.72656 C 676.41831 195.80659 681.49161 194.54985 688.93555 188.89453 L 692.66992 186.05859 L 694.33789 188.96094 C 696.95702 193.51856 700.26092 195.14489 707.07617 195.23242 C 710.46791 195.27602 712.17535 194.95223 714.67773 193.78711 L 714.67773 193.78516 C 716.45298 192.95857 719.34922 190.89174 721.11328 189.19141 L 724.32031 186.09961 L 725.17383 187.73242 C 728.61245 194.3122 738.07317 196.64594 745.82617 192.82812 C 747.88867 191.81249 750.81248 190.05438 752.32422 188.92188 C 754.50785 187.28599 755.13967 187.05597 755.39648 187.80078 C 756.01667 189.59933 759.3491 192.11901 762.88672 193.46289 C 768.07041 195.43206 778.76306 195.4753 783.66406 193.54688 C 793.49787 189.67738 801.86717 178.20598 805.86523 163.11328 C 807.51948 156.86847 807.55359 143.44931 805.92383 140.17188 C 804.54671 137.40276 802.17046 134.92639 799.58789 133.56641 C 796.53389 131.9582 787.78163 132.13574 784.29688 133.87695 C 782.76873 134.6405 781.45781 135.203 781.38281 135.12695 C 781.30781 135.05085 782.47792 129.22266 783.98438 122.17578 C 785.49086 115.12891 786.73346 108.92752 786.74414 108.39453 C 786.75289 107.96241 786.51618 107.75278 785.28516 107.78516 z M 601.87109 137.89648 C 602.54442 137.98313 603.08564 138.44306 603.97852 139.33594 C 605.28699 140.64441 605.51367 141.45526 605.51367 144.85938 C 605.51367 152.38 600.44048 159.41142 592.96484 162.25195 C 590.11712 163.33399 586.13867 163.84057 586.13867 163.12109 C 586.13867 162.05224 590.28994 150.11534 591.4668 147.80078 C 593.84591 143.12175 596.72157 139.63033 598.96875 138.69141 C 600.39228 138.09662 601.19776 137.80984 601.87109 137.89648 z M 724.90234 139.84766 C 727.2662 139.76098 730.84747 140.57494 731.37695 141.43164 C 731.53745 141.6913 730.00489 149.77109 727.9707 159.38477 C 725.93652 168.99844 724.27008 177.29121 724.26758 177.81445 C 724.25958 179.34526 720.47321 183.50679 718.23633 184.44141 C 715.91758 185.41025 715.96584 185.40926 713.12109 184.58984 C 711.4739 184.11538 710.76892 183.37971 709.73438 181.05273 C 708.4973 178.27019 708.46691 177.73231 709.16016 170.92578 C 710.07441 161.94913 711.68104 155.7202 714.61523 149.7832 C 717.40398 144.1406 720.83831 140.53209 723.97656 139.94336 C 724.25209 139.89167 724.56465 139.86004 724.90234 139.84766 z M 786.5957 139.91016 C 789.42524 139.91064 791.18706 141.0723 792.48438 143.61523 C 793.62913 145.85908 793.75009 146.86449 793.41016 151.28711 C 792.52991 162.73874 786.89773 179.41832 782.48242 183.64844 C 780.33148 185.70917 777.74745 186.47569 774.96289 185.87891 C 773.80126 185.62995 772.59157 185.04605 772.27344 184.58203 C 771.31932 183.19035 772.17894 177.03137 775.48828 161.55078 C 780.43109 138.42897 779.4344 141.10957 783.38672 140.28906 C 784.58942 140.03938 785.65252 139.90999 786.5957 139.91016 z "
     id="path4347" />
  <path
     id="path4339"
     d="m 222.38891,191.64958 3.89077,-2.59816 -0.42173,2.81231 -0.42173,2.81231 8.94455,-0.002 8.94454,-0.002 9.64784,-45.46709 c 5.30632,-25.00689 9.7688,-45.95927 9.91665,-46.56083 0.2466,-1.00341 -0.47328,-1.09375 -8.71527,-1.09375 l -8.98406,0 -7.43706,34.84375 c -4.09038,19.16406 -7.77013,36.16662 -8.17724,37.78346 -0.90567,3.59693 -4.57173,8.21903 -7.84248,9.88765 -6.62719,3.38093 -11.126,0.13185 -13.45359,-9.7163 -1.30215,-5.50948 -0.86858,-16.68809 0.98122,-25.29856 2.89626,-13.48151 10.23231,-31.53917 17.21403,-42.3723 1.61628,-2.50789 2.78863,-4.70986 2.60522,-4.89327 -0.1834,-0.1834 -3.80337,-0.32772 -8.04436,-0.32071 -12.13706,0.0201 -22.00428,3.34341 -31.87539,10.73581 -9.11979,6.82974 -14.67657,18.24404 -12.37631,25.42245 1.65229,5.15632 4.07172,7.01597 10.40002,7.99383 l 2.60923,0.40317 -0.89048,-2.95882 c -3.383,-11.24086 3.11407,-26.20414 13.73625,-31.6357 2.86202,-1.46347 7.3509,-3.10517 7.65606,-2.80002 0.11703,0.11704 -1.08053,1.87785 -2.66124,3.91292 -7.79312,10.0332 -14.28984,30.2382 -15.84063,49.26485 -1.36128,16.70153 1.84017,26.00728 10.42813,30.31178 3.9025,1.95603 6.82885,2.53083 11.81487,2.32072 4.04198,-0.17033 4.8272,-0.43228 8.35219,-2.78617 z"
     style="fill:#ffffff" />
  <path
     id="path4337"
     d="m 348.6093,124.28096 c 6.67307,-3.94188 6.04401,-13.7003 -1.10817,-17.19073 -10.08192,-4.92021 -18.82731,8.497 -10.56689,16.21177 2.91022,2.71798 8.00758,3.1454 11.67506,0.97896 z"
     style="fill:#ffffff" />
  <path
     id="path4335"
     d="m 202.72842,42.196778 c 118.0252,-9.225649 229.85837,-13.806787 314.34689,-12.876918 79.37667,0.873606 180.26562,5.819058 275.30444,13.495078 8.41744,0.67986 16.644,1.2361 18.28125,1.2361 l 2.97681,0 0,-5 c 0,-4.767647 -0.0654,-5.000141 -1.40625,-5.002953 -0.77344,-0.0019 -8.4375,-0.556244 -17.03125,-1.232494 -20.36412,-1.602469 -55.38906,-3.966437 -87.8125,-5.9268 -163.99448,-9.915312 -272.94687,-9.682781 -442.8125,0.945081 -27.34451,1.710844 -74.12889,4.964044 -86.09375,5.986613 l -4.84375,0.413969 0,4.908294 0,4.90829 2.68436,0 c 1.47641,0 13.35922,-0.83442 26.40625,-1.85426 z"
     style="fill:#ffffff" />
</svg>
